<svg width="305" height="44" viewBox="0 0 305 44" fill="none" xmlns="http://www.w3.org/2000/svg">
<rect width="305" height="44" rx="22" fill="url(#paint0_linear)"/>
<path fill-rule="evenodd" clip-rule="evenodd" d="M288.068 21.9928L283.818 17.7573L282.406 19.1739L284.242 21.0031L265.933 21.0011L265.933 23.0011L284.237 23.0031L282.416 24.8308L283.832 26.2426L288.068 21.9928Z" fill="white"/>
<path d="M117.022 26.0088C116.567 26.3962 116.059 26.6947 115.498 26.9043C114.938 27.1094 114.354 27.2119 113.748 27.2119C113.283 27.2119 112.834 27.1504 112.401 27.0273C111.973 26.9089 111.572 26.7402 111.198 26.5215C110.825 26.2982 110.483 26.0339 110.173 25.7285C109.863 25.4186 109.599 25.0768 109.38 24.7031C109.161 24.3249 108.99 23.9193 108.867 23.4863C108.749 23.0534 108.689 22.6045 108.689 22.1396C108.689 21.6748 108.749 21.2282 108.867 20.7998C108.99 20.3714 109.161 19.9704 109.38 19.5967C109.599 19.2184 109.863 18.8766 110.173 18.5713C110.483 18.2614 110.825 17.9971 111.198 17.7783C111.572 17.5596 111.973 17.391 112.401 17.2725C112.834 17.1494 113.283 17.0879 113.748 17.0879C114.354 17.0879 114.938 17.1927 115.498 17.4023C116.059 17.6074 116.567 17.9036 117.022 18.291L115.997 20C115.701 19.6992 115.359 19.4645 114.972 19.2959C114.584 19.1227 114.176 19.0361 113.748 19.0361C113.32 19.0361 112.916 19.1182 112.538 19.2822C112.164 19.4463 111.836 19.6696 111.554 19.9521C111.271 20.2301 111.048 20.5583 110.884 20.9365C110.72 21.3102 110.638 21.7113 110.638 22.1396C110.638 22.5726 110.72 22.9782 110.884 23.3564C111.048 23.7347 111.271 24.0651 111.554 24.3477C111.836 24.6302 112.164 24.8535 112.538 25.0176C112.916 25.1816 113.32 25.2637 113.748 25.2637C113.994 25.2637 114.233 25.234 114.466 25.1748C114.698 25.1156 114.919 25.0335 115.129 24.9287V22.1396H117.022V26.0088ZM125.253 27H118.533V17.1973H125.253V19.1592H120.495V21.1211H123.715V23.083H120.495V25.0381H125.253V27ZM130.742 27H128.787V19.1592H125.841V17.1973H133.682V19.1592H130.742V27ZM138.07 20.1367C138.07 19.7311 138.148 19.3506 138.303 18.9951C138.458 18.6396 138.667 18.3298 138.932 18.0654C139.201 17.7965 139.513 17.5846 139.868 17.4297C140.224 17.2747 140.604 17.1973 141.01 17.1973H145.508V19.1592H141.01C140.873 19.1592 140.745 19.1842 140.627 19.2344C140.508 19.2845 140.404 19.3551 140.312 19.4463C140.226 19.5329 140.158 19.6354 140.107 19.7539C140.057 19.8724 140.032 20 140.032 20.1367C140.032 20.2734 140.057 20.4033 140.107 20.5264C140.158 20.6449 140.226 20.7497 140.312 20.8408C140.404 20.9274 140.508 20.9958 140.627 21.0459C140.745 21.096 140.873 21.1211 141.01 21.1211H142.972C143.377 21.1211 143.758 21.1986 144.113 21.3535C144.473 21.5039 144.785 21.7135 145.05 21.9824C145.319 22.2467 145.528 22.5589 145.679 22.9189C145.834 23.2744 145.911 23.6549 145.911 24.0605C145.911 24.4661 145.834 24.8467 145.679 25.2021C145.528 25.5576 145.319 25.8698 145.05 26.1387C144.785 26.403 144.473 26.6126 144.113 26.7676C143.758 26.9225 143.377 27 142.972 27H138.617V25.0381H142.972C143.108 25.0381 143.236 25.013 143.354 24.9629C143.473 24.9128 143.576 24.8444 143.662 24.7578C143.753 24.6667 143.824 24.5618 143.874 24.4434C143.924 24.3249 143.949 24.1973 143.949 24.0605C143.949 23.9238 143.924 23.7962 143.874 23.6777C143.824 23.5592 143.753 23.4567 143.662 23.3701C143.576 23.279 143.473 23.2083 143.354 23.1582C143.236 23.1081 143.108 23.083 142.972 23.083H141.01C140.604 23.083 140.224 23.0055 139.868 22.8506C139.513 22.6956 139.201 22.486 138.932 22.2217C138.667 21.9528 138.458 21.6406 138.303 21.2852C138.148 20.9251 138.07 20.5423 138.07 20.1367ZM151.182 27H149.227V19.1592H146.28V17.1973H154.121V19.1592H151.182V27ZM160.629 23.083V21.1211C160.629 20.8522 160.576 20.5993 160.472 20.3623C160.371 20.1208 160.232 19.9111 160.055 19.7334C159.877 19.5557 159.667 19.4167 159.426 19.3164C159.189 19.2116 158.936 19.1592 158.667 19.1592C158.398 19.1592 158.143 19.2116 157.901 19.3164C157.664 19.4167 157.457 19.5557 157.279 19.7334C157.102 19.9111 156.96 20.1208 156.855 20.3623C156.755 20.5993 156.705 20.8522 156.705 21.1211V23.083H160.629ZM162.591 27H160.629V25.0381H156.705V27H154.75V21.1211C154.75 20.5788 154.853 20.0706 155.058 19.5967C155.263 19.1182 155.541 18.7012 155.892 18.3457C156.247 17.9902 156.662 17.71 157.136 17.5049C157.614 17.2998 158.125 17.1973 158.667 17.1973C159.209 17.1973 159.717 17.2998 160.191 17.5049C160.67 17.71 161.087 17.9902 161.442 18.3457C161.798 18.7012 162.078 19.1182 162.283 19.5967C162.488 20.0706 162.591 20.5788 162.591 21.1211V27ZM166.255 19.1592V23.083H168.217C168.486 23.083 168.739 23.0329 168.976 22.9326C169.213 22.8278 169.42 22.6865 169.598 22.5088C169.775 22.3311 169.914 22.1237 170.015 21.8867C170.119 21.6452 170.172 21.39 170.172 21.1211C170.172 20.8522 170.119 20.5993 170.015 20.3623C169.914 20.1208 169.775 19.9111 169.598 19.7334C169.42 19.5557 169.213 19.4167 168.976 19.3164C168.739 19.2116 168.486 19.1592 168.217 19.1592H166.255ZM166.255 27H164.293V17.1973H168.217C168.577 17.1973 168.923 17.2451 169.256 17.3408C169.589 17.432 169.898 17.5641 170.186 17.7373C170.477 17.9059 170.742 18.111 170.979 18.3525C171.22 18.5895 171.425 18.8538 171.594 19.1455C171.767 19.4372 171.899 19.7493 171.99 20.082C172.086 20.4147 172.134 20.7611 172.134 21.1211C172.134 21.4583 172.09 21.7865 172.004 22.1055C171.922 22.4245 171.801 22.7275 171.642 23.0146C171.487 23.3018 171.295 23.5661 171.067 23.8076C170.84 24.0492 170.584 24.2588 170.302 24.4365L171.389 27H169.304L168.449 25.0244L166.255 25.0381V27ZM177.363 27H175.408V19.1592H172.462V17.1973H180.303V19.1592H177.363V27ZM188.062 27H181.342V17.1973H188.062V19.1592H183.304V21.1211H186.523V23.083H183.304V25.0381H188.062V27ZM197.29 22.0986C197.29 22.5498 197.231 22.985 197.112 23.4043C196.998 23.819 196.834 24.2087 196.62 24.5732C196.406 24.9333 196.151 25.2637 195.854 25.5645C195.558 25.8607 195.228 26.1159 194.863 26.3301C194.499 26.5443 194.107 26.7106 193.688 26.8291C193.273 26.943 192.84 27 192.389 27H189.436V17.1973H192.389C192.84 17.1973 193.273 17.2565 193.688 17.375C194.107 17.4889 194.499 17.653 194.863 17.8672C195.228 18.0814 195.558 18.3389 195.854 18.6396C196.151 18.9359 196.406 19.2663 196.62 19.6309C196.834 19.9909 196.998 20.3805 197.112 20.7998C197.231 21.2145 197.29 21.6475 197.29 22.0986ZM195.328 22.0986C195.328 21.693 195.251 21.3125 195.096 20.957C194.945 20.6016 194.736 20.2917 194.467 20.0273C194.202 19.7585 193.89 19.5465 193.53 19.3916C193.175 19.2367 192.794 19.1592 192.389 19.1592H191.411V25.0381H192.389C192.794 25.0381 193.175 24.9629 193.53 24.8125C193.89 24.6576 194.202 24.4479 194.467 24.1836C194.736 23.9147 194.945 23.6025 195.096 23.2471C195.251 22.887 195.328 22.5042 195.328 22.0986Z" fill="white"/>
<defs>
<linearGradient id="paint0_linear" x1="152" y1="1.47746e-08" x2="152.5" y2="44" gradientUnits="userSpaceOnUse">
<stop offset="0.9999" stop-color="#2D9CDB"/>
<stop offset="1" stop-color="#8A49F7"/>
</linearGradient>
</defs>
</svg>
