<svg width="53" height="61" viewBox="0 0 53 61" fill="none" xmlns="http://www.w3.org/2000/svg">
<path d="M1.85156 46H0.914062V38.8906H1.85156V46ZM9.03418 46H8.0918L4.5127 40.5215V46H3.57031V38.8906H4.5127L8.10156 44.3936V38.8906H9.03418V46ZM13.0527 44.7549L15.084 38.8906H16.1094L13.4727 46H12.6426L10.0107 38.8906H11.0312L13.0527 44.7549ZM18.0723 46H17.1348V38.8906H18.0723V46ZM24.5566 39.6621H22.2715V46H21.3389V39.6621H19.0586V38.8906H24.5566V39.6621ZM29.1465 44.1445H26.168L25.499 46H24.5322L27.2471 38.8906H28.0674L30.7871 46H29.8252L29.1465 44.1445ZM26.4512 43.373H28.8682L27.6572 40.0479L26.4512 43.373ZM36.0215 39.6621H33.7363V46H32.8037V39.6621H30.5234V38.8906H36.0215V39.6621ZM38.082 46H37.1445V38.8906H38.082V46ZM45.2695 42.6748C45.2695 43.3714 45.1523 43.9801 44.918 44.501C44.6836 45.0186 44.3516 45.4141 43.9219 45.6875C43.4922 45.9609 42.9909 46.0977 42.418 46.0977C41.8581 46.0977 41.3617 45.9609 40.9287 45.6875C40.4958 45.4108 40.1589 45.0186 39.918 44.5107C39.6803 43.9997 39.5583 43.4089 39.5518 42.7383V42.2256C39.5518 41.542 39.6706 40.9382 39.9082 40.4141C40.1458 39.89 40.4811 39.4896 40.9141 39.2129C41.3503 38.9329 41.8483 38.793 42.4082 38.793C42.9779 38.793 43.4792 38.9313 43.9121 39.208C44.3483 39.4814 44.6836 39.8802 44.918 40.4043C45.1523 40.9251 45.2695 41.5322 45.2695 42.2256V42.6748ZM44.3369 42.2158C44.3369 41.3727 44.1676 40.7266 43.8291 40.2773C43.4906 39.8249 43.0169 39.5986 42.4082 39.5986C41.8158 39.5986 41.3486 39.8249 41.0068 40.2773C40.6683 40.7266 40.4941 41.3516 40.4844 42.1523V42.6748C40.4844 43.4919 40.6553 44.1348 40.9971 44.6035C41.3421 45.069 41.8158 45.3018 42.418 45.3018C43.0234 45.3018 43.4922 45.082 43.8242 44.6426C44.1562 44.1999 44.3271 43.5667 44.3369 42.7432V42.2158ZM52.1396 46H51.1973L47.6182 40.5215V46H46.6758V38.8906H47.6182L51.207 44.3936V38.8906H52.1396V46ZM17.1348 54.8311C16.3307 54.5999 15.7448 54.3167 15.377 53.9814C15.0124 53.6429 14.8301 53.2262 14.8301 52.7314C14.8301 52.1715 15.0531 51.7093 15.499 51.3447C15.9482 50.9769 16.5309 50.793 17.2471 50.793C17.7354 50.793 18.1699 50.8874 18.5508 51.0762C18.9349 51.265 19.2311 51.5254 19.4395 51.8574C19.651 52.1895 19.7568 52.5524 19.7568 52.9463H18.8145C18.8145 52.5166 18.6777 52.1797 18.4043 51.9355C18.1309 51.6882 17.7451 51.5645 17.2471 51.5645C16.7848 51.5645 16.4235 51.667 16.1631 51.8721C15.9059 52.0739 15.7773 52.3555 15.7773 52.7168C15.7773 53.0065 15.8994 53.2523 16.1436 53.4541C16.391 53.6527 16.8092 53.835 17.3984 54.001C17.9909 54.167 18.4531 54.3509 18.7852 54.5527C19.1204 54.7513 19.3678 54.984 19.5273 55.251C19.6901 55.5179 19.7715 55.832 19.7715 56.1934C19.7715 56.7695 19.5469 57.2318 19.0977 57.5801C18.6484 57.9251 18.0479 58.0977 17.2959 58.0977C16.8076 58.0977 16.3519 58.0049 15.9287 57.8193C15.5055 57.6305 15.1784 57.3734 14.9473 57.0479C14.7194 56.7223 14.6055 56.3529 14.6055 55.9395H15.5479C15.5479 56.3691 15.7057 56.7093 16.0215 56.96C16.3405 57.2074 16.7653 57.3311 17.2959 57.3311C17.7907 57.3311 18.1699 57.2301 18.4336 57.0283C18.6973 56.8265 18.8291 56.5514 18.8291 56.2031C18.8291 55.8548 18.707 55.5863 18.4629 55.3975C18.2188 55.2054 17.776 55.0166 17.1348 54.8311ZM24.9961 54.7139H21.915V57.2334H25.4941V58H20.9775V50.8906H25.4453V51.6621H21.915V53.9473H24.9961V54.7139ZM32.125 58H31.1826L27.6035 52.5215V58H26.6611V50.8906H27.6035L31.1924 56.3936V50.8906H32.125V58ZM38.5557 51.6621H36.2705V58H35.3379V51.6621H33.0576V50.8906H38.5557V51.6621Z" fill="#2D9CDB"/>
<g clip-path="url(#clip0)">
<path d="M32.4959 25.0938C33.4413 24.5859 34.5233 24.2969 35.6756 24.2969H35.6795C35.7967 24.2969 35.8514 24.1562 35.7655 24.0781C34.5671 23.0026 33.1981 22.134 31.7147 21.5078C31.6991 21.5 31.6834 21.4961 31.6678 21.4883C34.0936 19.7266 35.6717 16.8633 35.6717 13.6328C35.6717 8.28125 31.3436 3.94531 26.0038 3.94531C20.6639 3.94531 16.3397 8.28125 16.3397 13.6328C16.3397 16.8633 17.9178 19.7266 20.3475 21.4883C20.3319 21.4961 20.3163 21.5 20.3006 21.5078C18.5545 22.2461 16.9881 23.3047 15.6405 24.6562C14.3006 25.9937 13.2339 27.5792 12.4999 29.3242C11.7776 31.0331 11.3879 32.8639 11.3514 34.7188C11.3504 34.7604 11.3577 34.8019 11.3729 34.8407C11.3882 34.8796 11.411 34.9149 11.4401 34.9448C11.4693 34.9746 11.5041 34.9984 11.5425 35.0146C11.5809 35.0307 11.6222 35.0391 11.6639 35.0391H14.0038C14.1717 35.0391 14.3124 34.9023 14.3163 34.7344C14.3944 31.7188 15.6014 28.8945 17.7381 26.7539C19.9452 24.5391 22.8827 23.3203 26.0077 23.3203C28.2225 23.3203 30.3475 23.9336 32.1795 25.082C32.2266 25.1116 32.2806 25.1283 32.3362 25.1303C32.3917 25.1324 32.4468 25.1198 32.4959 25.0938ZM26.0077 20.3516C24.2186 20.3516 22.535 19.6523 21.2655 18.3828C20.6408 17.7598 20.1457 17.0194 19.8084 16.2041C19.4712 15.3889 19.2986 14.515 19.3006 13.6328C19.3006 11.8398 19.9999 10.1523 21.2655 8.88281C22.5311 7.61328 24.2147 6.91406 26.0077 6.91406C27.8006 6.91406 29.4803 7.61328 30.7499 8.88281C31.3745 9.50582 31.8697 10.2463 32.2069 11.0615C32.5441 11.8767 32.7167 12.7506 32.7147 13.6328C32.7147 15.4258 32.0155 17.1133 30.7499 18.3828C29.4803 19.6523 27.7967 20.3516 26.0077 20.3516Z" fill="#2D9CDB"/>
<path d="M27 24V29.4091L36.2308 31L27 32.5909V38L43 31L27 24Z" fill="#2D9CDB"/>
</g>
<defs>
<clipPath id="clip0">
<rect width="40" height="40" fill="white" transform="translate(6)"/>
</clipPath>
</defs>
</svg>
