<svg width="40" height="50" viewBox="0 0 40 50" fill="none" xmlns="http://www.w3.org/2000/svg">
<path d="M4.01416 47H2.98291V39.1797H4.01416V47ZM11.915 47H10.8784L6.94141 40.9736V47H5.90479V39.1797H6.94141L10.8892 45.2329V39.1797H11.915V47ZM16.3354 45.6304L18.5698 39.1797H19.6978L16.7974 47H15.8843L12.9893 39.1797H14.1118L16.3354 45.6304ZM21.8569 47H20.8257V39.1797H21.8569V47ZM28.9897 40.0283H26.4761V47H25.4502V40.0283H22.9419V39.1797H28.9897V40.0283ZM34.5703 43.3853H31.1812V46.1567H35.1182V47H30.1499V39.1797H35.0645V40.0283H31.1812V42.542H34.5703V43.3853Z" fill="#2D9CDB"/>
<path d="M26.4959 25.0938C27.4413 24.5859 28.5233 24.2969 29.6756 24.2969H29.6795C29.7967 24.2969 29.8514 24.1562 29.7655 24.0781C28.5671 23.0027 27.1981 22.134 25.7147 21.5078C25.6991 21.5 25.6834 21.4961 25.6678 21.4883C28.0936 19.7266 29.6717 16.8633 29.6717 13.6328C29.6717 8.28125 25.3436 3.94531 20.0038 3.94531C14.6639 3.94531 10.3397 8.28125 10.3397 13.6328C10.3397 16.8633 11.9178 19.7266 14.3475 21.4883C14.3319 21.4961 14.3163 21.5 14.3006 21.5078C12.5545 22.2461 10.9881 23.3047 9.64048 24.6562C8.3006 25.9937 7.23389 27.5792 6.49985 29.3242C5.77764 31.0331 5.38787 32.8639 5.35142 34.7188C5.35037 34.7604 5.35769 34.8019 5.37292 34.8407C5.38816 34.8796 5.41101 34.9149 5.44014 34.9448C5.46926 34.9746 5.50406 34.9984 5.54249 35.0146C5.58093 35.0307 5.62221 35.0391 5.66392 35.0391H8.00376C8.17173 35.0391 8.31235 34.9023 8.31626 34.7344C8.39438 31.7188 9.60142 28.8945 11.7381 26.7539C13.9452 24.5391 16.8827 23.3203 20.0077 23.3203C22.2225 23.3203 24.3475 23.9336 26.1795 25.082C26.2266 25.1116 26.2806 25.1283 26.3362 25.1303C26.3917 25.1324 26.4468 25.1198 26.4959 25.0938ZM20.0077 20.3516C18.2186 20.3516 16.535 19.6523 15.2655 18.3828C14.6408 17.7598 14.1457 17.0194 13.8084 16.2041C13.4712 15.3889 13.2986 14.515 13.3006 13.6328C13.3006 11.8398 13.9999 10.1523 15.2655 8.88281C16.5311 7.61328 18.2147 6.91406 20.0077 6.91406C21.8006 6.91406 23.4803 7.61328 24.7499 8.88281C25.3745 9.50582 25.8697 10.2463 26.2069 11.0615C26.5441 11.8767 26.7167 12.7506 26.7147 13.6328C26.7147 15.4258 26.0155 17.1133 24.7499 18.3828C23.4803 19.6523 21.7967 20.3516 20.0077 20.3516ZM34.3749 29.6484H31.0936V26.3672C31.0936 26.1953 30.953 26.0547 30.7811 26.0547H28.5936C28.4217 26.0547 28.2811 26.1953 28.2811 26.3672V29.6484H24.9999C24.828 29.6484 24.6874 29.7891 24.6874 29.9609V32.1484C24.6874 32.3203 24.828 32.4609 24.9999 32.4609H28.2811V35.7422C28.2811 35.9141 28.4217 36.0547 28.5936 36.0547H30.7811C30.953 36.0547 31.0936 35.9141 31.0936 35.7422V32.4609H34.3749C34.5467 32.4609 34.6874 32.3203 34.6874 32.1484V29.9609C34.6874 29.7891 34.5467 29.6484 34.3749 29.6484Z" fill="#2D9CDB"/>
</svg>
