<svg width="31" height="31" viewBox="0 0 31 31" fill="none" xmlns="http://www.w3.org/2000/svg">
<path d="M9.79082 5.27001L7.94374 3.42292C4.84374 5.78667 2.8029 9.42917 2.62207 13.5625H5.2054C5.2969 11.9244 5.75672 10.3281 6.55063 8.89234C7.34455 7.45659 8.45209 6.21842 9.79082 5.27001ZM25.7946 13.5625H28.3779C28.1842 9.42917 26.1433 5.78667 23.0562 3.42292L21.2221 5.27001C22.5551 6.22308 23.6577 7.46262 24.4489 8.8976C25.2402 10.3326 25.7 11.9266 25.7946 13.5625ZM23.25 14.2083C23.25 10.2429 21.1317 6.92334 17.4375 6.04501V5.16667C17.4375 4.09459 16.5721 3.22917 15.5 3.22917C14.4279 3.22917 13.5625 4.09459 13.5625 5.16667V6.04501C9.8554 6.92334 7.74999 10.23 7.74999 14.2083V20.6667L5.16665 23.25V24.5417H25.8333V23.25L23.25 20.6667V14.2083ZM15.5 28.4167C15.6808 28.4167 15.8487 28.4038 16.0167 28.365C16.8562 28.1842 17.5408 27.6158 17.8767 26.8408C18.0058 26.5308 18.0704 26.195 18.0704 25.8333H12.9037C12.9167 27.2542 14.0662 28.4167 15.5 28.4167Z" fill="#1391DE"/>
</svg>
