<svg width="35" height="35" viewBox="0 0 35 35" fill="none" xmlns="http://www.w3.org/2000/svg">
<path d="M26.4996 8.50732C25.3353 7.3391 23.9535 6.41016 22.4322 5.77295C20.8719 5.11738 19.196 4.78149 17.5035 4.78516H17.4454C14.0377 4.79883 10.8487 6.13184 8.463 8.5415C6.07384 10.9512 4.77159 14.1504 4.78526 17.5581C4.79552 19.6191 5.30821 21.6665 6.27208 23.4746L6.42589 23.7617V28.5742H11.2384L11.5255 28.728C13.3336 29.6919 15.381 30.2046 17.442 30.2148H17.5001C20.8839 30.2148 24.0626 28.9092 26.4586 26.5371C28.8649 24.1514 30.2013 20.9624 30.2218 17.5581C30.2286 15.8286 29.8971 14.1538 29.234 12.5747C28.5964 11.0536 27.6675 9.67193 26.4996 8.50732ZM10.6642 19.1406C10.2348 19.1319 9.82607 18.9552 9.52554 18.6484C9.22502 18.3417 9.05669 17.9294 9.05669 17.5C9.05669 17.0706 9.22502 16.6583 9.52554 16.3516C9.82607 16.0448 10.2348 15.8681 10.6642 15.8594C11.0935 15.8681 11.5023 16.0448 11.8028 16.3516C12.1033 16.6583 12.2716 17.0706 12.2716 17.5C12.2716 17.9294 12.1033 18.3417 11.8028 18.6484C11.5023 18.9552 11.0935 19.1319 10.6642 19.1406ZM17.5001 19.1406C17.0708 19.1319 16.662 18.9552 16.3615 18.6484C16.061 18.3417 15.8926 17.9294 15.8926 17.5C15.8926 17.0706 16.061 16.6583 16.3615 16.3516C16.662 16.0448 17.0708 15.8681 17.5001 15.8594C17.9294 15.8681 18.3382 16.0448 18.6387 16.3516C18.9393 16.6583 19.1076 17.0706 19.1076 17.5C19.1076 17.9294 18.9393 18.3417 18.6387 18.6484C18.3382 18.9552 17.9294 19.1319 17.5001 19.1406ZM24.336 19.1406C23.9067 19.1319 23.4979 18.9552 23.1974 18.6484C22.8969 18.3417 22.7286 17.9294 22.7286 17.5C22.7286 17.0706 22.8969 16.6583 23.1974 16.3516C23.4979 16.0448 23.9067 15.8681 24.336 15.8594C24.7654 15.8681 25.1741 16.0448 25.4747 16.3516C25.7752 16.6583 25.9435 17.0706 25.9435 17.5C25.9435 17.9294 25.7752 18.3417 25.4747 18.6484C25.1741 18.9552 24.7654 19.1319 24.336 19.1406Z" fill="black" fill-opacity="0.15"/>
<path d="M22.6953 17.5C22.6953 17.9351 22.8682 18.3524 23.1758 18.6601C23.4835 18.9678 23.9008 19.1406 24.3359 19.1406C24.7711 19.1406 25.1884 18.9678 25.496 18.6601C25.8037 18.3524 25.9766 17.9351 25.9766 17.5C25.9766 17.0649 25.8037 16.6476 25.496 16.3399C25.1884 16.0322 24.7711 15.8594 24.3359 15.8594C23.9008 15.8594 23.4835 16.0322 23.1758 16.3399C22.8682 16.6476 22.6953 17.0649 22.6953 17.5ZM9.02344 17.5C9.02344 17.9351 9.19629 18.3524 9.50397 18.6601C9.81164 18.9678 10.2289 19.1406 10.6641 19.1406C11.0992 19.1406 11.5165 18.9678 11.8242 18.6601C12.1318 18.3524 12.3047 17.9351 12.3047 17.5C12.3047 17.0649 12.1318 16.6476 11.8242 16.3399C11.5165 16.0322 11.0992 15.8594 10.6641 15.8594C10.2289 15.8594 9.81164 16.0322 9.50397 16.3399C9.19629 16.6476 9.02344 17.0649 9.02344 17.5Z" fill="#2D9CDB"/>
<path d="M31.6232 11.5664C30.8508 9.73096 29.7434 8.0835 28.3317 6.66846C26.93 5.26161 25.2659 4.14334 23.4338 3.37695C21.5539 2.5874 19.5578 2.1875 17.5002 2.1875H17.4318C15.3605 2.19775 13.3542 2.60791 11.4675 3.41455C9.65102 4.18879 8.00256 5.30905 6.61396 6.71289C5.21601 8.12451 4.11885 9.76514 3.36006 11.5938C2.57392 13.4873 2.17744 15.5005 2.18769 17.5718C2.19929 19.9455 2.76086 22.2842 3.82832 24.4043V29.5996C3.82832 30.0166 3.99397 30.4165 4.28882 30.7114C4.58368 31.0062 4.98359 31.1719 5.40058 31.1719H10.5993C12.7195 32.2393 15.0582 32.8009 17.4318 32.8125H17.5036C19.551 32.8125 21.5368 32.416 23.4064 31.6401C25.2293 30.8829 26.8872 29.7777 28.2873 28.3862C29.6989 26.9883 30.8098 25.3545 31.5856 23.5327C32.3923 21.646 32.8024 19.6396 32.8127 17.5684C32.8229 15.4868 32.4196 13.4668 31.6232 11.5664ZM26.4587 26.5371C24.0627 28.9092 20.884 30.2148 17.5002 30.2148H17.4421C15.3811 30.2046 13.3337 29.6919 11.5256 28.728L11.2385 28.5742H6.42597V23.7617L6.27217 23.4746C5.3083 21.6665 4.7956 19.6191 4.78535 17.5581C4.77168 14.1504 6.07392 10.9512 8.46308 8.5415C10.8488 6.13184 14.0378 4.79883 17.4455 4.78516H17.5036C19.2126 4.78516 20.8703 5.1167 22.4323 5.77295C23.9567 6.41211 25.3239 7.33154 26.4997 8.50732C27.6721 9.67969 28.5949 11.0503 29.2341 12.5747C29.8972 14.1538 30.2287 15.8286 30.2219 17.5581C30.2014 20.9624 28.8649 24.1514 26.4587 26.5371Z" fill="#2D9CDB"/>
<path d="M15.8594 17.5C15.8594 17.9351 16.0322 18.3524 16.3399 18.6601C16.6476 18.9678 17.0649 19.1406 17.5 19.1406C17.9351 19.1406 18.3524 18.9678 18.6601 18.6601C18.9678 18.3524 19.1406 17.9351 19.1406 17.5C19.1406 17.0649 18.9678 16.6476 18.6601 16.3399C18.3524 16.0322 17.9351 15.8594 17.5 15.8594C17.0649 15.8594 16.6476 16.0322 16.3399 16.3399C16.0322 16.6476 15.8594 17.0649 15.8594 17.5Z" fill="#2D9CDB"/>
</svg>
