<svg width="35" height="35" viewBox="0 0 35 35" fill="none" xmlns="http://www.w3.org/2000/svg">
<path d="M29.5314 18.3313V17.5V16.6578L31.6314 14.8203C32.0185 14.4791 32.2725 14.0121 32.3486 13.5017C32.4246 12.9913 32.3178 12.4705 32.047 12.0313L29.4657 7.65625C29.2739 7.32404 28.9982 7.04811 28.666 6.85613C28.3339 6.66416 27.9572 6.5629 27.5736 6.5625C27.3358 6.56068 27.0994 6.59762 26.8736 6.67188L24.2157 7.56875C23.7569 7.26382 23.2782 6.98978 22.7829 6.74844L22.2251 3.99219C22.1251 3.48863 21.8512 3.0363 21.4512 2.71436C21.0513 2.39243 20.5509 2.22142 20.0376 2.23125H14.9189C14.4056 2.22142 13.9052 2.39243 13.5053 2.71436C13.1053 3.0363 12.8314 3.48863 12.7314 3.99219L12.1736 6.74844C11.6747 6.98972 11.1924 7.26376 10.7298 7.56875L8.12669 6.62813C7.89842 6.56865 7.66203 6.54649 7.42669 6.5625C7.04308 6.5629 6.66632 6.66416 6.33421 6.85613C6.00209 7.04811 5.7263 7.32404 5.5345 7.65625L2.95325 12.0313C2.69795 12.4698 2.60309 12.9835 2.6849 13.4844C2.76671 13.9852 3.0201 14.442 3.40169 14.7766L5.46887 16.6687V18.3422L3.40169 20.1797C3.00932 20.5166 2.749 20.9815 2.6669 21.4921C2.58481 22.0027 2.68626 22.5259 2.95325 22.9688L5.5345 27.3438C5.7263 27.676 6.00209 27.9519 6.33421 28.1439C6.66632 28.3358 7.04308 28.4371 7.42669 28.4375C7.66441 28.4393 7.90085 28.4024 8.12669 28.3281L10.7845 27.4312C11.2434 27.7362 11.722 28.0102 12.2173 28.2516L12.7751 31.0078C12.8751 31.5114 13.1491 31.9637 13.549 32.2856C13.9489 32.6076 14.4493 32.7786 14.9626 32.7687H20.1251C20.6384 32.7786 21.1388 32.6076 21.5387 32.2856C21.9387 31.9637 22.2126 31.5114 22.3126 31.0078L22.8704 28.2516C23.3693 28.0103 23.8516 27.7362 24.3142 27.4312L26.9611 28.3281C27.1869 28.4024 27.4233 28.4393 27.6611 28.4375C28.0447 28.4371 28.4214 28.3358 28.7535 28.1439C29.0857 27.9519 29.3614 27.676 29.5532 27.3438L32.047 22.9688C32.3023 22.5302 32.3972 22.0165 32.3153 21.5156C32.2335 21.0148 31.9801 20.558 31.5986 20.2234L29.5314 18.3313ZM27.5736 26.25L23.822 24.9812C22.9438 25.7251 21.9401 26.3066 20.8579 26.6984L20.0814 30.625H14.9189L14.1423 26.7422C13.0687 26.3392 12.0704 25.7587 11.1892 25.025L7.42669 26.25L4.84544 21.875L7.82044 19.25C7.6182 18.1178 7.6182 16.9587 7.82044 15.8266L4.84544 13.125L7.42669 8.75L11.1782 10.0188C12.0565 9.27488 13.0602 8.6934 14.1423 8.30156L14.9189 4.375H20.0814L20.8579 8.25781C21.9315 8.66078 22.9298 9.24125 23.8111 9.975L27.5736 8.75L30.1548 13.125L27.1798 15.75C27.382 16.8822 27.382 18.0413 27.1798 19.1734L30.1548 21.875L27.5736 26.25Z" fill="#2AB1EB"/>
<path d="M17.5 24.0625C16.2021 24.0625 14.9333 23.6776 13.8541 22.9565C12.7749 22.2354 11.9337 21.2105 11.437 20.0114C10.9403 18.8122 10.8104 17.4927 11.0636 16.2197C11.3168 14.9467 11.9418 13.7774 12.8596 12.8596C13.7774 11.9418 14.9467 11.3168 16.2197 11.0636C17.4927 10.8104 18.8122 10.9403 20.0114 11.437C21.2105 11.9337 22.2354 12.7749 22.9565 13.8541C23.6776 14.9333 24.0625 16.2021 24.0625 17.5C24.0713 18.3642 23.9075 19.2215 23.5808 20.0217C23.2541 20.8219 22.7711 21.5488 22.1599 22.1599C21.5488 22.7711 20.8219 23.2541 20.0217 23.5808C19.2215 23.9075 18.3642 24.0713 17.5 24.0625ZM17.5 13.125C16.9218 13.1115 16.3468 13.2155 15.81 13.4306C15.2731 13.6457 14.7854 13.9674 14.3764 14.3764C13.9674 14.7854 13.6457 15.2731 13.4306 15.81C13.2155 16.3468 13.1115 16.9218 13.125 17.5C13.1115 18.0782 13.2155 18.6532 13.4306 19.19C13.6457 19.7269 13.9674 20.2146 14.3764 20.6236C14.7854 21.0326 15.2731 21.3543 15.81 21.5694C16.3468 21.7845 16.9218 21.8885 17.5 21.875C18.0782 21.8885 18.6532 21.7845 19.19 21.5694C19.7269 21.3543 20.2146 21.0326 20.6236 20.6236C21.0326 20.2146 21.3543 19.7269 21.5694 19.19C21.7845 18.6532 21.8885 18.0782 21.875 17.5C21.8885 16.9218 21.7845 16.3468 21.5694 15.81C21.3543 15.2731 21.0326 14.7854 20.6236 14.3764C20.2146 13.9674 19.7269 13.6457 19.19 13.4306C18.6532 13.2155 18.0782 13.1115 17.5 13.125Z" fill="#2AB1EB"/>
</svg>
