<svg width="61" height="61" viewBox="0 0 61 61" fill="none" xmlns="http://www.w3.org/2000/svg">
<path fill-rule="evenodd" clip-rule="evenodd" d="M3.8125 53.375C3.8125 53.375 0 53.375 0 49.5625C0 45.75 3.8125 34.3125 22.875 34.3125C41.9375 34.3125 45.75 45.75 45.75 49.5625C45.75 53.375 41.9375 53.375 41.9375 53.375H3.8125ZM22.875 30.5C25.9084 30.5 28.8176 29.295 30.9625 27.15C33.1075 25.0051 34.3125 22.0959 34.3125 19.0625C34.3125 16.0291 33.1075 13.1199 30.9625 10.975C28.8176 8.83002 25.9084 7.625 22.875 7.625C19.8416 7.625 16.9324 8.83002 14.7875 10.975C12.6425 13.1199 11.4375 16.0291 11.4375 19.0625C11.4375 22.0959 12.6425 25.0051 14.7875 27.15C16.9324 29.295 19.8416 30.5 22.875 30.5ZM51.4688 19.0625C51.9743 19.0625 52.4592 19.2633 52.8167 19.6208C53.1742 19.9783 53.375 20.4632 53.375 20.9688V28.5938C53.375 29.0993 53.1742 29.5842 52.8167 29.9417C52.4592 30.2992 51.9743 30.5 51.4688 30.5H43.8438C43.3382 30.5 42.8533 30.2992 42.4958 29.9417C42.1383 29.5842 41.9375 29.0993 41.9375 28.5938C41.9375 28.0882 42.1383 27.6033 42.4958 27.2458C42.8533 26.8883 43.3382 26.6875 43.8438 26.6875H49.5625V20.9688C49.5625 20.4632 49.7633 19.9783 50.1208 19.6208C50.4783 19.2633 50.9632 19.0625 51.4688 19.0625Z" fill="black"/>
<path fill-rule="evenodd" clip-rule="evenodd" d="M49.5625 28.5938C49.5625 28.0882 49.7633 27.6033 50.1208 27.2458C50.4783 26.8883 50.9632 26.6875 51.4688 26.6875H59.0938C59.5993 26.6875 60.0842 26.8883 60.4417 27.2458C60.7992 27.6033 61 28.0882 61 28.5938C61 29.0993 60.7992 29.5842 60.4417 29.9417C60.0842 30.2992 59.5993 30.5 59.0938 30.5H53.375V36.2188C53.375 36.7243 53.1742 37.2092 52.8167 37.5667C52.4592 37.9242 51.9743 38.125 51.4688 38.125C50.9632 38.125 50.4783 37.9242 50.1208 37.5667C49.7633 37.2092 49.5625 36.7243 49.5625 36.2188V28.5938Z" fill="black"/>
</svg>
