<svg width="46" height="46" viewBox="0 0 46 46" fill="none" xmlns="http://www.w3.org/2000/svg">
<path d="M33.5378 22.9923C36.3336 22.9923 39.0149 24.103 40.9919 26.0799C42.9688 28.0569 44.0795 30.7382 44.0795 33.534C44.0795 36.3298 42.9688 39.0111 40.9919 40.9881C39.0149 42.965 36.3336 44.0757 33.5378 44.0757C30.742 44.0757 28.0607 42.965 26.0837 40.9881C24.1068 39.0111 22.9961 36.3298 22.9961 33.534C22.9961 30.7382 24.1068 28.0569 26.0837 26.0799C28.0607 24.103 30.742 22.9923 33.5378 22.9923V22.9923ZM33.5378 26.8237L33.3653 26.8391C33.1738 26.8741 32.9975 26.9665 32.8599 27.1042C32.7222 27.2418 32.6298 27.4181 32.5948 27.6096L32.5795 27.7821V32.5738H27.7821L27.6096 32.591C27.4181 32.626 27.2418 32.7184 27.1041 32.8561C26.9665 32.9937 26.874 33.17 26.8391 33.3615L26.8237 33.534L26.8391 33.7065C26.874 33.898 26.9665 34.0743 27.1041 34.2119C27.2418 34.3496 27.4181 34.442 27.6096 34.477L27.7821 34.4923L32.5795 34.4904V39.2897L32.5967 39.4622C32.6317 39.6537 32.7242 39.83 32.8618 39.9677C32.9994 40.1053 33.1757 40.1978 33.3672 40.2327L33.5397 40.2481L33.7122 40.2327C33.9037 40.1978 34.08 40.1053 34.2176 39.9677C34.3553 39.83 34.4477 39.6537 34.4827 39.4622L34.4981 39.2897V34.4904H39.2955L39.468 34.477C39.6595 34.442 39.8357 34.3496 39.9734 34.2119C40.111 34.0743 40.2035 33.898 40.2385 33.7065L40.2538 33.534L40.2385 33.3615C40.2035 33.17 40.111 32.9937 39.9734 32.8561C39.8357 32.7184 39.6595 32.626 39.468 32.591L39.2955 32.5757L34.4942 32.5738V27.7821L34.4789 27.6096C34.4439 27.4181 34.3514 27.2418 34.2138 27.1042C34.0762 26.9665 33.8999 26.8741 33.7084 26.8391L33.5359 26.8237H33.5378ZM23.0364 26.8237C22.4624 27.7205 22.0063 28.6874 21.6794 29.7007H17.7253C17.5982 29.7007 17.4763 29.7511 17.3865 29.841C17.2966 29.9309 17.2461 30.0528 17.2461 30.1798V32.0965C17.2461 33.9691 18.4191 35.0558 21.2117 35.3721C21.3651 36.3975 21.643 37.3846 22.0282 38.3142C17.135 38.0516 14.3711 35.9739 14.3711 32.0965V30.1798C14.3711 28.3264 15.8719 26.8257 17.7253 26.8257H23.0383L23.0364 26.8237ZM15.571 17.2404C15.3288 18.1786 15.2664 19.1541 15.387 20.1154H7.18364C7.05655 20.1154 6.93468 20.1659 6.84481 20.2558C6.75495 20.3456 6.70447 20.4675 6.70447 20.5946V22.5112C6.70447 24.7672 8.40264 25.8846 12.581 25.8846C13.4665 25.8846 14.2351 25.8347 14.8963 25.7351C13.7993 26.4303 12.9984 27.507 12.6481 28.7577H12.581C7.00539 28.7577 3.82947 26.6685 3.82947 22.5132V20.5965C3.82854 19.7541 4.14465 18.9421 4.71497 18.3221C5.28529 17.702 6.06805 17.3193 6.90764 17.25L7.18364 17.2404H15.571V17.2404ZM22.9961 13.4071C24.5211 13.4071 25.9837 14.0129 27.062 15.0912C28.1403 16.1696 28.7461 17.6321 28.7461 19.1571C28.7461 20.6821 28.1403 22.1446 27.062 23.2229C25.9837 24.3013 24.5211 24.9071 22.9961 24.9071C21.4711 24.9071 20.0086 24.3013 18.9303 23.2229C17.8519 22.1446 17.2461 20.6821 17.2461 19.1571C17.2461 17.6321 17.8519 16.1696 18.9303 15.0912C20.0086 14.0129 21.4711 13.4071 22.9961 13.4071V13.4071ZM38.8086 17.2404C40.6601 17.2404 42.1628 18.7431 42.1628 20.5946L42.159 22.4403C42.1973 23.1457 42.1398 23.7954 41.9922 24.3838C41.1798 23.6318 40.271 22.9911 39.2897 22.4787L39.2878 20.5965C39.2878 20.4694 39.2373 20.3475 39.1475 20.2577C39.0576 20.1678 38.9357 20.1173 38.8086 20.1173L30.6034 20.1154C30.7235 19.1541 30.6617 18.1789 30.4213 17.2404H38.8086ZM22.9961 16.2821C22.2336 16.2821 21.5024 16.585 20.9632 17.1242C20.424 17.6633 20.1211 18.3946 20.1211 19.1571C20.1211 19.9196 20.424 20.6508 20.9632 21.19C21.5024 21.7292 22.2336 22.0321 22.9961 22.0321C23.7586 22.0321 24.4899 21.7292 25.0291 21.19C25.5682 20.6508 25.8711 19.9196 25.8711 19.1571C25.8711 18.3946 25.5682 17.6633 25.0291 17.1242C24.4899 16.585 23.7586 16.2821 22.9961 16.2821ZM12.4545 3.82375C13.2096 3.82375 13.9573 3.97248 14.6549 4.26144C15.3525 4.55041 15.9864 4.97395 16.5203 5.50789C17.0543 6.04182 17.4778 6.6757 17.7668 7.37332C18.0557 8.07094 18.2045 8.81865 18.2045 9.57375C18.2045 10.3289 18.0557 11.0766 17.7668 11.7742C17.4778 12.4718 17.0543 13.1057 16.5203 13.6396C15.9864 14.1735 15.3525 14.5971 14.6549 14.8861C13.9573 15.175 13.2096 15.3237 12.4545 15.3237C10.9295 15.3237 9.46694 14.7179 8.38861 13.6396C7.31027 12.5613 6.70447 11.0987 6.70447 9.57375C6.70447 8.04875 7.31027 6.58622 8.38861 5.50789C9.46694 4.42955 10.9295 3.82375 12.4545 3.82375V3.82375ZM33.5378 3.82375C34.2929 3.82375 35.0406 3.97248 35.7382 4.26144C36.4359 4.55041 37.0697 4.97395 37.6037 5.50789C38.1376 6.04182 38.5611 6.6757 38.8501 7.37332C39.1391 8.07094 39.2878 8.81865 39.2878 9.57375C39.2878 10.3289 39.1391 11.0766 38.8501 11.7742C38.5611 12.4718 38.1376 13.1057 37.6037 13.6396C37.0697 14.1735 36.4359 14.5971 35.7382 14.8861C35.0406 15.175 34.2929 15.3237 33.5378 15.3237C32.0128 15.3237 30.5503 14.7179 29.4719 13.6396C28.3936 12.5613 27.7878 11.0987 27.7878 9.57375C27.7878 8.04875 28.3936 6.58622 29.4719 5.50789C30.5503 4.42955 32.0128 3.82375 33.5378 3.82375V3.82375ZM12.4545 6.69875C12.0769 6.69875 11.7031 6.77311 11.3543 6.9176C11.0054 7.06208 10.6885 7.27385 10.4215 7.54082C10.1546 7.80779 9.9428 8.12472 9.79832 8.47353C9.65383 8.82235 9.57947 9.1962 9.57947 9.57375C9.57947 9.9513 9.65383 10.3252 9.79832 10.674C9.9428 11.0228 10.1546 11.3397 10.4215 11.6067C10.6885 11.8737 11.0054 12.0854 11.3543 12.2299C11.7031 12.3744 12.0769 12.4487 12.4545 12.4487C13.217 12.4487 13.9482 12.1458 14.4874 11.6067C15.0266 11.0675 15.3295 10.3362 15.3295 9.57375C15.3295 8.81125 15.0266 8.07998 14.4874 7.54082C13.9482 7.00165 13.217 6.69875 12.4545 6.69875V6.69875ZM33.5378 6.69875C33.1603 6.69875 32.7864 6.77311 32.4376 6.9176C32.0888 7.06208 31.7718 7.27385 31.5049 7.54082C31.2379 7.80779 31.0261 8.12472 30.8816 8.47353C30.7372 8.82235 30.6628 9.1962 30.6628 9.57375C30.6628 9.9513 30.7372 10.3252 30.8816 10.674C31.0261 11.0228 31.2379 11.3397 31.5049 11.6067C31.7718 11.8737 32.0888 12.0854 32.4376 12.2299C32.7864 12.3744 33.1603 12.4487 33.5378 12.4487C34.3003 12.4487 35.0316 12.1458 35.5707 11.6067C36.1099 11.0675 36.4128 10.3362 36.4128 9.57375C36.4128 8.81125 36.1099 8.07998 35.5707 7.54082C35.0316 7.00165 34.3003 6.69875 33.5378 6.69875V6.69875Z" fill="#1A99E2"/>
</svg>
