<svg width="40" height="40" viewBox="0 0 40 40" fill="none" xmlns="http://www.w3.org/2000/svg">
<path d="M37.1063 18.4462C37.1912 18.3425 37.2756 18.2387 37.3537 18.1344C38.7769 16.2238 39.8656 12.5 33.1131 12.5C31.2225 12.5 28.7806 12.92 26.2431 13.6194C26.2019 9.59188 24.2519 6.03062 21.2588 3.77437C21.1712 3.7 21.0869 3.62375 20.99 3.56C21.0031 3.57312 21.0144 3.58812 21.0281 3.60125C18.9094 2.07179 16.3625 1.24906 13.7494 1.25C12.5325 1.25 11.36 1.4325 10.2475 1.75687L10.2319 1.7525L10.2437 1.75812C8.20224 2.35383 6.34671 3.46112 4.85312 4.975C4.85312 4.97375 4.85313 4.9725 4.85188 4.97125L4.85312 4.97563C2.62195 7.23504 1.33858 10.2617 1.26563 13.4362L1.25437 13.4144L1.26438 13.4525C1.26313 13.5513 1.25 13.6488 1.25 13.75C1.25 18.0225 3.3975 21.7906 6.6675 24.0456L6.65875 24.045C6.66188 24.0456 6.66563 24.0456 6.66875 24.0469C8.03664 24.991 9.57979 25.6515 11.2071 25.9896C12.8345 26.3276 14.513 26.3362 16.1438 26.015L16.1431 26.0156C17.7887 28.0456 18.7362 29.9075 19.2406 31.52C18.1233 32.7913 16.8937 33.9593 15.5669 35.01C15.2619 35.2544 15.225 35.6825 15.4875 35.9669C15.75 36.2525 16.21 36.2869 16.5163 36.0413C17.62 35.1649 18.6617 34.213 19.6337 33.1925C20.065 35.9388 19.2588 37.6562 19.1969 37.7825C19.0562 38.0612 19.1344 38.3937 19.3888 38.5912C19.5153 38.6883 19.6688 38.7438 19.8282 38.7501C19.9876 38.7563 20.145 38.7131 20.2787 38.6262C22.355 37.2644 24.1006 35.9294 25.5763 34.6375C25.9762 36.6325 25.6844 37.8806 25.6769 37.9087C25.605 38.18 25.7181 38.4631 25.9625 38.625C26.0847 38.7039 26.2265 38.7471 26.3719 38.7497C26.5174 38.7524 26.6606 38.7144 26.7856 38.64C28.5719 37.5575 30.16 36.4606 31.55 35.3519C31.6681 36.8462 31.4037 37.7775 31.3719 37.8825C31.2594 38.2419 31.4819 38.6175 31.8688 38.7231C31.9356 38.7412 32.005 38.75 32.0731 38.75C32.3881 38.75 32.68 38.5581 32.7725 38.2619C32.8156 38.125 33.2669 36.5919 32.8713 34.2337C33.3924 33.7732 33.8959 33.2931 34.3806 32.7944C34.3919 32.9444 34.4463 33.0937 34.5656 33.2119C34.7034 33.3437 34.8851 33.4198 35.0757 33.4255C35.2663 33.4312 35.4522 33.366 35.5975 33.2425C35.6306 33.2131 37.4675 31.5444 37.4794 28.5844C38.0638 27.4437 38.4481 26.2956 38.63 25.1406C39.1675 21.7412 37.7569 19.3419 37.1063 18.4462ZM33.1131 14.4181C36.0925 14.4181 35.6456 15.3956 34.7719 16.4231C32.8837 18.6444 27.7156 21.0875 23.0387 22.0944C24.6462 20.3088 25.702 18.0959 26.0788 15.7231C28.6444 14.9319 31.1969 14.4181 33.1131 14.4181ZM31.8287 22.3619C31.6619 23.5644 31.1725 25.3612 29.8494 27.5469C29.0781 26.5125 28.1262 25.44 26.9575 24.3462C28.6413 23.8106 30.3075 23.1381 31.8287 22.3619ZM23.1369 25.3194C23.0163 25.6212 22.8731 25.9506 22.7081 26.3C22.4709 26.0325 22.2279 25.7702 21.9794 25.5131C22.3665 25.4568 22.7525 25.3922 23.1369 25.3194ZM20.0581 23.0594C19.3761 22.7863 18.7274 22.4365 18.1244 22.0169L18.1206 22.0131C18.2331 21.9444 18.3494 21.8825 18.4594 21.8094C18.9195 21.494 19.3538 21.1424 19.7581 20.7581C19.8831 20.8438 20.0138 20.9219 20.1531 20.9888C20.8031 21.2863 21.4912 21.3206 22.1462 21.2106C21.529 21.9105 20.8276 22.5314 20.0581 23.0594ZM24.9994 13.75C24.9994 16.5144 23.9931 19.0456 22.3319 21.0063C21.6237 21.0563 20.9256 20.9712 20.36 20.6037C20.2728 20.5486 20.1887 20.4887 20.1081 20.4244C20.5573 19.966 20.965 19.4686 21.3263 18.9381C22.8425 16.6619 23.4519 13.9062 23.36 11.2487C23.3211 9.91579 23.0975 8.59467 22.6956 7.32312C22.6125 7.07375 22.5163 6.82937 22.4175 6.58625C24.0881 8.59949 25.0015 11.1339 24.9994 13.75ZM13.7494 2.5C16.9188 2.5 19.7806 3.8225 21.8275 5.93813C22.0144 6.42875 22.1562 6.93812 22.2762 7.44062C22.5669 8.69125 22.68 9.97875 22.6625 11.2544C22.6112 13.7981 21.9888 16.3588 20.5806 18.4388C20.2637 18.9183 19.9041 19.3683 19.5062 19.7831C19.1706 19.3169 18.9262 18.765 18.7294 18.2088C18.4044 17.2481 18.1756 16.2375 17.9794 15.2156L17.3731 12.1288C16.9244 10.0738 16.3862 7.97188 15.2937 6.0925C14.7519 5.1575 14.0562 4.29688 13.2075 3.625C12.7249 3.2568 12.1999 2.94772 11.6437 2.70437C12.3377 2.57054 13.0427 2.50212 13.7494 2.5ZM11.3394 2.76687C12.8156 3.61812 13.9475 4.93187 14.6788 6.42687C15.5837 8.25562 16.0694 10.2794 16.4962 12.315C16.9519 14.3469 17.2581 16.4469 18.0788 18.4606C18.3281 19.055 18.6544 19.6694 19.105 20.1756C18.5804 20.6672 18.0085 21.1056 17.3975 21.4844C16.8248 21.0598 16.271 20.6104 15.7375 20.1375C14.2331 18.7756 12.8438 17.2819 11.5487 15.7125C10.2435 14.148 9.02943 12.5097 7.9125 10.8056C7.35875 9.95062 6.825 9.08187 6.34938 8.18C6.00063 7.53937 5.6875 6.87937 5.4425 6.19C7.00619 4.46581 9.06668 3.2697 11.3394 2.76687ZM2.5 13.75C2.5 10.9025 3.57188 8.30687 5.32188 6.32312C5.46813 7.01812 5.70438 7.69812 5.95125 8.36375C6.34342 9.32731 6.79879 10.2639 7.31437 11.1675C8.33437 12.98 9.53875 14.68 10.8581 16.285C12.1919 17.8763 13.6438 19.3812 15.2863 20.6731C15.7913 21.0731 16.3187 21.4462 16.865 21.7919C16.1395 22.1917 15.3754 22.5171 14.5844 22.7631C14.5712 22.7675 14.5575 22.77 14.545 22.7737C14.0431 22.4444 13.5063 22.1781 12.9681 21.9462C11.4244 21.2856 9.85188 20.8163 8.39437 20.1306C6.92812 19.4712 5.57812 18.5994 4.45563 17.4594C3.72563 16.72 3.11062 15.8663 2.56687 14.9544C2.52314 14.5544 2.50081 14.1524 2.5 13.75ZM2.76437 16.1531C3.09562 16.7775 3.47688 17.3794 3.93875 17.9275C5.02875 19.2487 6.48625 20.2381 8.01875 20.945C9.56063 21.6506 11.175 22.09 12.715 22.5988C13.0688 22.7212 13.4194 22.8488 13.7612 22.9931C12.0181 23.4362 10.1944 23.6056 8.36062 23.6212C6.94923 22.8475 5.71967 21.7808 4.75446 20.4927C3.78924 19.2046 3.1107 17.725 2.76437 16.1531ZM13.7494 25C11.985 25 10.3206 24.58 8.8325 23.8525C10.775 24.0244 12.7556 23.9475 14.6844 23.4562C14.755 23.4987 14.8294 23.5369 14.8994 23.5825C15.3716 23.8829 15.7721 24.2834 16.0725 24.7556C15.3225 24.9144 14.5456 25 13.7494 25ZM15.2375 23.2981C16.0892 23.049 16.9105 22.7058 17.6863 22.275C17.7588 22.3144 17.8294 22.3569 17.9013 22.3944C18.5381 22.7094 19.205 22.9887 19.8925 23.1625C18.7734 23.8955 17.5318 24.4217 16.2269 24.7163C16.0109 24.1735 15.6723 23.6881 15.2375 23.2981ZM17.7125 25.6969C18.1394 25.725 18.5981 25.7394 19.0912 25.7394C19.4369 25.7394 19.795 25.7269 20.1625 25.7037C20.8101 26.3233 21.4233 26.9778 21.9994 27.6644C21.4953 28.55 20.9321 29.4007 20.3137 30.2106C19.775 28.825 18.95 27.3094 17.7125 25.6969ZM21.0931 36.3862C21.2725 35.2656 21.3119 33.7125 20.8394 31.8456C21.6169 30.9166 22.3245 29.9312 22.9562 28.8975C24.0575 30.435 24.7463 31.8625 25.1656 33.1062C24.0125 34.1675 22.67 35.2637 21.0931 36.3862ZM26.3306 31.9812C25.7969 30.6306 24.9762 29.1237 23.73 27.5219C24.1611 26.6928 24.5292 25.8324 24.8312 24.9481C25.0131 24.9031 25.1956 24.8569 25.3781 24.8081C26.9419 26.1962 28.1262 27.545 29.0125 28.8169C28.3037 29.8125 27.4225 30.8725 26.3306 31.9812ZM27.2638 36.7044C27.2763 35.8937 27.1894 34.7937 26.8337 33.4862C28.0456 32.3219 29.0387 31.2006 29.8481 30.1375C30.6063 31.4694 31.05 32.6912 31.2969 33.7519C30.1225 34.7412 28.7794 35.7262 27.2638 36.7044ZM32.5056 32.6687C32.1606 31.5162 31.6069 30.2337 30.7506 28.8625C32.5344 26.1562 33.1375 23.9125 33.3137 22.4269C35.2562 24.7519 35.9475 26.6919 36.0431 28.2187C35.2456 29.7081 34.0644 31.1937 32.5056 32.6687ZM37.18 24.9781C37.1338 25.2669 37.0675 25.5556 36.9919 25.8437C36.4987 24.4325 35.5794 22.8431 34.0287 21.0931C34.7608 20.6191 35.4533 20.0865 36.0994 19.5006C36.6794 20.4019 37.6087 22.3275 37.18 24.9781Z" fill="black"/>
<path d="M23.7826 21.1844L23.7788 21.1894C23.7869 21.186 23.795 21.1829 23.8032 21.18L23.7826 21.1844Z" fill="black"/>
</svg>
