<svg width="40" height="40" viewBox="0 0 40 40" fill="none" xmlns="http://www.w3.org/2000/svg">
<g clip-path="url(#clip0)">
<path d="M26.6667 2C25 2 23.6667 3.33333 23.6667 5C23.6667 6.66666 25 8 26.6667 8C28.3333 8 29.6667 6.66666 29.6667 5C29.6667 3.33333 28.3333 2 26.6667 2ZM20.6667 6.83333C19.8833 6.83333 19.1667 7.15 18.6667 7.66666L12.5 13.8167C11.9833 14.3333 11.6667 15 11.6667 15.8333C11.6667 16.8833 12.2167 17.7667 13.0833 18.2833L18.6667 21.6667V30H21.6667V19.1667L17.9167 16.4167L21.7833 12.5L24.6667 16.6667H31.6667V13.6667H26.3333L23.1 8.21666C22.6167 7.38333 21.6667 6.83333 20.6667 6.83333ZM16.6667 5H5C4.08333 5 3.33333 4.25 3.33333 3.33333C3.33333 2.41666 4.08333 1.66666 5 1.66666H21.3167C20.9667 2.23333 20.6833 2.85 20.5333 3.51666C19.1 3.55 17.75 4.08333 16.6667 5ZM8.33333 20C3.73333 20 0 23.7333 0 28.3333C0 32.9333 3.73333 36.6667 8.33333 36.6667C12.9333 36.6667 16.6667 32.9333 16.6667 28.3333C16.6667 23.7333 12.9333 20 8.33333 20ZM8.33333 34.1667C5.11667 34.1667 2.5 31.55 2.5 28.3333C2.5 25.1167 5.11667 22.5 8.33333 22.5C11.55 22.5 14.1667 25.1167 14.1667 28.3333C14.1667 31.55 11.55 34.1667 8.33333 34.1667ZM31.6667 20C27.0667 20 23.3333 23.7333 23.3333 28.3333C23.3333 32.9333 27.0667 36.6667 31.6667 36.6667C36.2667 36.6667 40 32.9333 40 28.3333C40 23.7333 36.2667 20 31.6667 20ZM31.6667 34.1667C28.45 34.1667 25.8333 31.55 25.8333 28.3333C25.8333 25.1167 28.45 22.5 31.6667 22.5C34.8833 22.5 37.5 25.1167 37.5 28.3333C37.5 31.55 34.8833 34.1667 31.6667 34.1667ZM8.86667 18.3333H1.66667C0.746667 18.3333 0 17.5833 0 16.6667C0 15.75 0.746667 15 1.66667 15H8.41667C8.38333 15.2667 8.33333 15.55 8.33333 15.8333C8.33333 16.7167 8.53333 17.5667 8.86667 18.3333ZM10 11.6667H3.33333C2.41667 11.6667 1.66667 10.9167 1.66667 10C1.66667 9.08333 2.41667 8.33333 3.33333 8.33333H13.2833L10.15 11.45C10.0833 11.5167 10 11.6 10 11.6667Z" fill="black"/>
</g>
<defs>
<clipPath id="clip0">
<rect width="40" height="40" fill="white"/>
</clipPath>
</defs>
</svg>
