<svg width="40" height="40" viewBox="0 0 40 40" fill="none" xmlns="http://www.w3.org/2000/svg">
<path d="M26.8456 11.2956L26.0945 9.03556C26.0602 8.95625 26.0099 8.88489 25.9467 8.82596C25.8836 8.76702 25.8089 8.72179 25.7274 8.6931C25.6459 8.6644 25.5594 8.65287 25.4732 8.65922C25.387 8.66557 25.3031 8.68967 25.2267 8.73C24.2067 9.27111 21.9556 10.1944 21.1334 10.48C22.7101 11.0411 25.0212 12.15 26.1456 12.0311C26.5723 11.9867 27.0201 11.6889 26.8456 11.2956ZM38.1901 38.6C37.7467 38.85 30.9578 40.48 17.5001 28.7044C13.4256 25.1389 1.33338 14.31 1.49005 13.9411C1.49005 13.9411 1.1245 14.3411 0.821162 14.7589C0.602273 15.06 0.466717 15.38 0.516717 15.7011C0.861162 17.8867 3.9745 19.9444 8.25227 23.2356L8.86227 23.7044L9.26561 24.0144C9.91894 24.5167 11.8389 26.0311 14.0756 27.7956C17.1345 30.2078 23.2801 35.0067 23.4589 35.14C25.8145 36.8889 28.6089 38.27 31.9778 39.22C36.2423 40.4211 38.1901 38.6 38.1901 38.6Z" fill="#8899A6"/>
<path d="M38.1899 38.6C38.1899 38.6 38.7199 38.3567 39.2677 37.58C39.8154 36.8033 40.1454 35.4422 39.3177 33.9711C38.4899 32.5011 35.4777 28.2811 34.4899 26.5589C34.0088 25.72 34.1599 24.9511 33.2399 23.4089C33.2399 23.4089 29.7243 17.2722 28.9465 15.9389C27.2832 13.0867 28.0132 11.6033 26.9054 10.7522C26.1665 10.1844 18.7877 10.9367 16.5421 9.20889C14.9899 8.01555 14.9665 4.28889 14.3165 3.06889C13.7988 2.09667 12.0721 2.54111 10.8865 3.19111C9.70099 3.84111 6.4721 7.40111 5.6921 8.41555C4.9121 9.43 3.91321 10.5367 3.82655 11.6689L3.73877 12.8C3.73877 12.8 21.3621 29.6333 26.3777 33.0289C34.9299 38.8189 38.1899 38.6 38.1899 38.6Z" fill="#070707"/>
<path d="M27.4888 11.6267C27.3743 11.2778 27.2121 10.9878 26.9055 10.7511C26.1666 10.1833 18.7877 10.9367 16.5421 9.20778C14.9899 8.01445 14.9666 4.28667 14.3166 3.06778C14.1143 2.68889 13.7255 2.52889 13.2588 2.51C14.0255 4.06556 13.9488 8.70334 15.8277 10.1478C18.0921 11.8911 24.7343 11.4067 27.4888 11.6267Z" fill="#0E0E0E"/>
<path d="M14.7388 19.8589C15.2999 18.2233 15.8988 14.3978 14.821 12.1233C13.811 9.99334 9.88656 5.50667 9.141 4.65667C7.76322 5.88445 5.92211 8.03223 5.36656 8.75445C4.63322 9.70778 3.74989 10.7789 3.70656 11.8667C3.691 12.2578 3.80322 12.4333 3.80322 12.4333C3.80322 12.4333 14.7166 19.9233 14.7388 19.8589Z" fill="black"/>
<path d="M25.6746 15.84C25.4568 15.8413 25.2453 15.7661 25.0772 15.6275C24.909 15.489 24.7948 15.2958 24.7543 15.0817C24.7139 14.8676 24.7498 14.6461 24.8558 14.4558C24.9619 14.2654 25.1313 14.1183 25.3346 14.04L27.3602 13.2456C27.5873 13.1691 27.8351 13.1828 28.0523 13.284C28.2695 13.3852 28.4394 13.566 28.527 13.7891C28.6145 14.0121 28.6129 14.2603 28.5225 14.4822C28.4321 14.7041 28.2598 14.8827 28.0413 14.9811L26.0157 15.7756C25.907 15.818 25.7914 15.8398 25.6746 15.84ZM27.1713 19.2433C26.9655 19.2443 26.7652 19.1771 26.6017 19.0522C26.4382 18.9273 26.3206 18.7517 26.2674 18.5529C26.2142 18.3541 26.2284 18.1433 26.3077 17.9534C26.387 17.7635 26.527 17.6052 26.7057 17.5033L28.698 16.3578C28.9116 16.2435 29.1613 16.217 29.3942 16.2837C29.6271 16.3504 29.8249 16.5052 29.9457 16.7152C30.0664 16.9252 30.1007 17.174 30.0412 17.4089C29.9817 17.6437 29.8331 17.8462 29.6269 17.9733L27.6346 19.1189C27.4938 19.2004 27.334 19.2433 27.1713 19.2433ZM29.1946 22.3011C28.9985 22.3017 28.8073 22.2404 28.6481 22.126C28.4888 22.0115 28.3699 21.8497 28.308 21.6636C28.2462 21.4775 28.2447 21.2766 28.3038 21.0896C28.3628 20.9026 28.4794 20.7391 28.6369 20.6222L30.3191 19.3678C30.518 19.2367 30.7595 19.1866 30.9942 19.2279C31.2288 19.2691 31.4388 19.3985 31.5811 19.5895C31.7234 19.7806 31.7873 20.0188 31.7597 20.2554C31.732 20.492 31.6149 20.7091 31.4324 20.8622L29.7502 22.1156C29.5902 22.2363 29.3951 22.3014 29.1946 22.3011ZM31.3557 25.1578C31.1638 25.1572 30.9767 25.0975 30.8199 24.9867C30.6631 24.8759 30.5443 24.7194 30.4797 24.5387C30.415 24.3579 30.4077 24.1616 30.4587 23.9765C30.5097 23.7914 30.6165 23.6266 30.7646 23.5044L32.048 22.4511C32.2403 22.3074 32.4807 22.2434 32.719 22.2724C32.9574 22.3013 33.1754 22.421 33.3278 22.6066C33.4802 22.7922 33.5552 23.0293 33.5372 23.2687C33.5192 23.5082 33.4097 23.7315 33.2313 23.8922L31.948 24.9456C31.781 25.0825 31.5717 25.1575 31.3557 25.1578ZM3.55575 11.9556C3.55575 11.9556 4.30575 12.6356 5.13908 12.7622C5.97242 12.8889 7.44908 13.8178 8.46464 14.5989C9.4802 15.38 13.3524 18.2567 15.7246 20.6478C18.0969 23.0389 21.8302 27.9589 23.2813 29.3844C24.7324 30.8089 27.0735 32.9322 29.0746 34.2144C31.0757 35.4967 32.9135 36.5822 34.0924 37.1989C35.6124 37.9944 37.0169 38.47 38.1902 38.6C37.7813 38.84 35.6202 39.6511 31.868 38.3722C28.2813 37.1489 25.9435 35.8233 24.0113 34.3878C22.0791 32.9522 11.558 24.6011 9.83464 23.2756C8.11131 21.95 2.95908 18.0222 2.14575 16.8456C0.990195 15.1744 1.04575 14.4433 1.2702 14.1522C1.81686 13.44 2.97131 11.5056 3.55575 11.9556Z" fill="#CCD6DD"/>
<path d="M39.3178 33.9711C38.49 32.5011 35.4778 28.2811 34.49 26.5589C34.2967 26.2211 34.2045 25.8933 34.1045 25.5244C34.0034 25.5622 33.8945 25.5844 33.8056 25.6456C32.5234 26.5256 32.53 29.1844 34.44 31.9644C35.9711 34.1933 38.4289 35.9111 39.8089 35.9378C39.8378 35.34 39.7111 34.6689 39.3178 33.9711Z" fill="black"/>
</svg>
