<svg width="22" height="22" viewBox="0 0 22 22" fill="none" xmlns="http://www.w3.org/2000/svg">
<path d="M11 1.83334C9.79626 1.83334 8.60426 2.07045 7.49211 2.53111C6.37996 2.99178 5.36943 3.66699 4.51823 4.5182C2.79915 6.23728 1.83337 8.56886 1.83337 11C1.83337 13.4312 2.79915 15.7627 4.51823 17.4818C5.36943 18.333 6.37996 19.0082 7.49211 19.4689C8.60426 19.9296 9.79626 20.1667 11 20.1667C13.4312 20.1667 15.7628 19.2009 17.4819 17.4818C19.2009 15.7627 20.1667 13.4312 20.1667 11C20.1667 9.79623 19.9296 8.60423 19.4689 7.49208C19.0083 6.37993 18.3331 5.3694 17.4819 4.5182C16.6307 3.66699 15.6201 2.99178 14.508 2.53111C13.3958 2.07045 12.2038 1.83334 11 1.83334ZM11 2.75001C12.6134 2.75001 14.1167 3.23584 15.3817 4.04251L15.125 4.58334H11L9.42338 3.81334L9.74421 2.86918C10.1567 2.79584 10.5692 2.75001 11 2.75001ZM8.73588 3.09834L8.42421 4.04251L6.07754 5.21584L4.93171 5.44501C5.96019 4.32827 7.27637 3.51636 8.73588 3.09834ZM11.9167 5.50001H14.6667L17.1325 8.79084L15.9867 11.1467L13.5759 11.715L10.5692 8.19501L11.9167 5.50001ZM5.64671 6.10501L6.41671 9.16668L5.29837 11.9717L2.95171 12.7783C2.82337 12.2008 2.75004 11.6142 2.75004 11C2.75004 9.25834 3.29087 7.66334 4.20754 6.33418L5.64671 6.10501ZM18.8467 8.45168C19.1125 9.24918 19.25 10.1108 19.25 11C19.25 12.32 18.9109 13.5575 18.3609 14.6667H17.4167L16.6467 11.605L18.0217 8.85501L18.8467 8.45168ZM7.33337 9.16668H10.0834L12.6592 12.1733L11 14.6667L8.10338 15.3817L5.98588 12.5492L7.33337 9.16668ZM11 15.5833L13.75 17.4167L12.9525 18.9933C12.32 19.14 11.6692 19.25 11 19.25C9.39588 19.25 7.91088 18.7917 6.64587 17.9942L7.70921 16.4175L11 15.5833ZM17.4167 15.5833H17.875C16.9584 16.9583 15.5834 18.0308 14.0342 18.645L14.6667 17.4167L17.4167 15.5833Z" fill="black"/>
</svg>
