<svg width="22" height="22" viewBox="0 0 22 22" fill="none" xmlns="http://www.w3.org/2000/svg">
<path d="M19.8221 2.58019C17.4677 0.226192 13.1612 0.71466 10.2046 3.67229C8.47177 5.40479 7.59349 7.59825 7.63062 9.59338C7.49105 11.7301 7.10812 13.7923 6.09715 14.9878L5.74755 14.6379L5.20821 15.1769L5.35774 15.3264L1.73152 18.9527L1.58199 18.8031L1.04333 19.3418L3.01302 21.3125L3.55237 20.7738L3.40284 20.6247L7.0294 16.9984L7.17893 17.1476L7.71724 16.609L7.41577 16.3058C8.61065 15.2955 10.6701 14.9129 12.8047 14.7723C14.8006 14.8112 16.9961 13.9332 18.7303 12.199C21.689 9.24138 22.1771 4.93488 19.8221 2.58019ZM20.2284 6.42022L19.7341 5.9266L20.1177 5.54366C20.1799 5.82829 20.2163 6.12116 20.2284 6.42022ZM19.9578 4.98679L19.3762 5.56875L18.2851 4.47735L19.1507 3.61144C19.5052 4.01407 19.7792 4.48095 19.9578 4.98679ZM9.91724 9.94366L11.2861 8.57416L12.3781 9.66591L11.0086 11.0347L9.91724 9.94366ZM10.6511 11.3943L9.78387 12.2605C9.42898 11.8578 9.15495 11.3905 8.97674 10.8842L9.55871 10.3029L10.6511 11.3943ZM15.1068 4.75441L16.475 3.3856L17.5664 4.47769L16.1972 5.84685L15.1068 4.75441ZM17.2886 7.65497L15.9188 9.02722L14.826 7.93616L16.1972 6.56425L17.2886 7.65497ZM15.8387 6.20538L14.4675 7.5766L13.3761 6.48519L14.7473 5.11363L15.8387 6.20538ZM14.1086 7.93616L12.737 9.30738L11.6449 8.21529L13.0168 6.84407L14.1086 7.93616ZM13.0168 6.12632L11.9282 5.03732L13.2994 3.66575L14.3874 4.75441L13.0168 6.12632ZM12.6583 6.48554L11.2861 7.85641L10.1977 6.76741L11.5683 5.3955L12.6583 6.48554ZM12.737 10.0255L13.8281 11.1162L12.4593 12.4857L11.3686 11.3936L12.737 10.0255ZM13.0969 9.66591L14.4675 8.29469L15.5589 9.3861L14.1866 10.7577L13.0969 9.66591ZM15.9188 9.74463L17.0057 10.834L15.6341 12.2052L14.5448 11.1162L15.9188 9.74463ZM16.2766 9.38575L17.6478 8.01454L18.7372 9.10319L17.366 10.4748L16.2766 9.38575ZM16.5564 6.20572L17.9259 4.83622L19.017 5.92694L17.6492 7.29644L16.5564 6.20572ZM18.7922 3.25257L17.9259 4.11882L16.8335 3.02672L17.4148 2.44544C17.9216 2.62333 18.3893 2.89739 18.7922 3.25257ZM16.8582 2.28457L16.4753 2.6675L15.982 2.17422C16.2811 2.1866 16.574 2.22269 16.8582 2.28457ZM15.2801 2.19004L16.1161 3.02638L14.7476 4.39554L13.6579 3.30688L14.6964 2.26841C14.892 2.23232 15.0869 2.20654 15.2801 2.19004ZM13.7136 2.53344L13.2997 2.948L13.1234 2.77166C13.3164 2.68339 13.5134 2.6039 13.7136 2.53344ZM12.6459 3.0116L12.9402 3.30619L11.5683 4.6781L11.0592 4.16763C11.5373 3.717 12.0704 3.32858 12.6459 3.0116ZM10.7 4.52719L11.2101 5.03732L9.83852 6.40854L9.54393 6.1136C9.86101 5.53827 10.2494 5.00526 10.7 4.52719ZM9.30365 6.59141L9.47965 6.76775L9.06509 7.18232C9.13452 6.98363 9.21358 6.787 9.30365 6.59141ZM8.80005 8.16407L9.83852 7.12594L10.9275 8.21494L9.55871 9.58341L8.72133 8.74638C8.73818 8.55388 8.76396 8.35932 8.80005 8.16407ZM9.19915 9.94332L8.81621 10.3263C8.75383 10.038 8.71702 9.74478 8.70621 9.45004L9.19915 9.94332ZM7.72996 14.6737C7.3539 14.2976 7.8434 12.8401 8.18233 11.9735C8.41746 12.4544 8.72168 12.9013 9.11115 13.2908C9.50096 13.6806 9.94818 13.9851 10.4301 14.2206C9.56352 14.5592 8.10533 15.049 7.72996 14.6737ZM10.1427 12.6198L11.009 11.7532L12.1004 12.8449L11.5177 13.4262C11.012 13.2479 10.5452 12.9741 10.1427 12.6198ZM12.0756 13.5864L12.4589 13.2031L12.9526 13.6971C12.6576 13.686 12.3641 13.649 12.0756 13.5864ZM13.6548 13.6813L12.8175 12.8439L14.1863 11.4751L15.276 12.5637L14.2371 13.6032C14.0444 13.6387 13.8501 13.6648 13.6548 13.6813ZM15.2196 13.3382L15.6338 12.924L15.8105 13.1C15.6149 13.189 15.4179 13.2684 15.2196 13.3382ZM16.2893 12.8587L15.9947 12.5637L17.366 11.1928L17.8757 11.7026C17.3978 12.1534 16.8648 12.5418 16.2893 12.8587ZM18.2346 11.3438L17.7245 10.834L19.0957 9.46241L19.391 9.757C19.0737 10.3324 18.6852 10.8655 18.2346 11.3438ZM19.6309 9.27954L19.4546 9.10353L19.8688 8.68932C19.7986 8.8896 19.7192 9.08655 19.6309 9.27954ZM20.1342 7.70585L19.0957 8.74466L18.0074 7.65497L19.3762 6.28616L20.2129 7.12354C20.1962 7.31881 20.1699 7.51314 20.1342 7.70585Z" fill="black"/>
<path d="M4.46875 8.25C5.47869 8.25 6.42847 7.85675 7.14278 7.14278C7.85709 6.42847 8.25 5.47869 8.25 4.46875C8.25 3.45881 7.85606 2.50903 7.14175 1.79506C6.42778 1.08109 5.47834 0.6875 4.46841 0.6875C3.45847 0.6875 2.50937 1.08075 1.79541 1.79506C1.08109 2.50903 0.6875 3.45881 0.6875 4.46875C0.6875 5.47869 1.08075 6.42881 1.79506 7.14278C2.14541 7.49491 2.5621 7.77408 3.02103 7.96413C3.47996 8.15418 3.97202 8.25135 4.46875 8.25ZM6.69659 2.24091C7.26589 2.80832 7.59492 3.57311 7.61544 4.37662C6.81649 4.34257 6.0595 4.00959 5.4945 3.44369C4.92826 2.87877 4.59523 2.12154 4.56156 1.32241C5.36479 1.34301 6.12929 1.6719 6.69659 2.24091ZM2.24091 2.24056C2.75911 1.71977 3.44417 1.39812 4.17587 1.33203C4.21172 2.2302 4.58461 3.08191 5.22025 3.71749C5.85589 4.35307 6.70764 4.72587 7.60581 4.76162C7.53997 5.49357 7.21814 6.17885 6.69694 6.69694C6.17859 7.21772 5.49343 7.53938 4.76163 7.60547C4.72587 6.70744 4.35298 5.85587 3.71731 5.22053C3.08205 4.58475 2.23043 4.21184 1.33237 4.17622C1.39787 3.44415 1.71961 2.75869 2.24091 2.24056ZM3.44334 5.49381C4.00919 6.059 4.34214 6.81607 4.37628 7.61509C3.57288 7.59469 2.80813 7.26592 2.24056 6.69694C1.67137 6.12951 1.34256 5.36468 1.32241 4.56122C2.12127 4.59531 2.87821 4.92815 3.44334 5.49381Z" fill="black"/>
</svg>
