<svg width="20" height="20" viewBox="0 0 20 20" fill="none" xmlns="http://www.w3.org/2000/svg">
<path d="M10 0C4.47667 0 0 4.47733 0 10.0003C0 15.524 4.47667 20 10 20C15.5227 20 20 15.524 20 10.0003C20 4.47733 15.5227 0 10 0ZM19.319 9.489C17.8157 7.96167 14.571 5.58367 8.86833 5.48867C8.83433 4.503 8.96667 3.579 9.161 2.77733C13.3703 2.871 16.5923 4.662 18.4353 6.00967C18.9539 7.10076 19.254 8.28271 19.319 9.489ZM9.89467 0.669333C9.92967 0.669 9.965 0.666667 10 0.666667C13.2363 0.666667 16.0917 2.32267 17.7667 4.831C15.8087 3.59567 12.919 2.29267 9.325 2.17833C9.4798 1.66278 9.67014 1.15857 9.89467 0.669333ZM5.73233 1.70367C6.81843 1.1424 8.00491 0.801736 9.22333 0.701333C8.44 2.54067 7.33067 6.39567 9.67633 10.0143C9.0931 11.1667 8.24224 12.1625 7.195 12.9183C4.244 7.563 5.165 3.33967 5.73233 1.70367ZM2.36967 4.635C3.06212 3.65315 3.93633 2.81311 4.945 2.16033C4.36833 4.213 3.90567 8.23633 6.69467 13.2577C5.858 13.7793 4.993 14.1277 4.201 14.36C2.15467 10.6263 2.11567 6.89867 2.36967 4.635ZM0.666667 10.0003C0.666667 8.48167 1.03367 7.04833 1.67967 5.77967C1.576 8.10233 1.877 11.302 3.601 14.5183C3.07032 14.6434 2.53157 14.7314 1.98867 14.7817C1.12197 13.3375 0.664954 11.6846 0.666667 10.0003ZM2.35567 15.3453C4.33567 15.1067 8.24367 14.1457 10.21 10.294C11.4993 10.2226 12.7869 10.462 13.9643 10.992C10.8027 16.2257 6.68267 17.539 4.98367 17.8647C3.95192 17.2041 3.05919 16.3483 2.35567 15.3453ZM9.23067 19.299C8.02581 19.2005 6.85187 18.8673 5.775 18.318C7.841 17.791 11.556 16.18 14.509 11.2553C15.3787 11.719 16.1133 12.2943 16.7103 12.8643C14.509 16.488 11.319 18.3833 9.23067 19.299ZM10.586 19.313C12.642 18.2377 15.238 16.3833 17.148 13.3057C17.5108 13.6917 17.8472 14.1016 18.155 14.5327C16.6483 17.2327 13.841 19.1103 10.586 19.313ZM10.1853 9.692C9.47888 8.61111 9.04231 7.37638 8.91233 6.09167C14.9703 6.212 18.1643 9.071 19.3237 10.397C19.2729 11.6217 18.9796 12.8242 18.4607 13.9347C17.25 12.333 14.471 9.472 10.1853 9.692Z" fill="black"/>
</svg>
