<svg width="28" height="28" viewBox="0 0 28 28" fill="none" xmlns="http://www.w3.org/2000/svg">
<g filter="url(#filter0_i)">
<path d="M11.6667 21C13.7375 20.9996 15.7486 20.3063 17.3799 19.0307L22.5085 24.1593L24.1582 22.5097L19.0295 17.381C20.3059 15.7496 20.9995 13.738 21 11.6667C21 6.52051 16.8129 2.33334 11.6667 2.33334C6.52054 2.33334 2.33337 6.52051 2.33337 11.6667C2.33337 16.8128 6.52054 21 11.6667 21ZM11.6667 4.66668C15.5272 4.66668 18.6667 7.80618 18.6667 11.6667C18.6667 15.5272 15.5272 18.6667 11.6667 18.6667C7.80621 18.6667 4.66671 15.5272 4.66671 11.6667C4.66671 7.80618 7.80621 4.66668 11.6667 4.66668Z" fill="#020202"/>
<path d="M13.314 10.017C13.7561 10.4603 14 11.046 14 11.6667H16.3333C16.3343 11.0535 16.2138 10.4462 15.9787 9.87991C15.7436 9.3136 15.3986 8.7995 14.9636 8.36734C13.1973 6.60334 10.1348 6.60334 8.36963 8.36734L10.017 10.0193C10.9036 9.13501 12.432 9.13734 13.314 10.017Z" fill="#020202"/>
</g>
<defs>
<filter id="filter0_i" x="0" y="0" width="28" height="30" filterUnits="userSpaceOnUse" color-interpolation-filters="sRGB">
<feFlood flood-opacity="0" result="BackgroundImageFix"/>
<feBlend mode="normal" in="SourceGraphic" in2="BackgroundImageFix" result="shape"/>
<feColorMatrix in="SourceAlpha" type="matrix" values="0 0 0 0 0 0 0 0 0 0 0 0 0 0 0 0 0 0 127 0" result="hardAlpha"/>
<feOffset dy="2"/>
<feGaussianBlur stdDeviation="5"/>
<feComposite in2="hardAlpha" operator="arithmetic" k2="-1" k3="1"/>
<feColorMatrix type="matrix" values="0 0 0 0 0 0 0 0 0 0 0 0 0 0 0 0 0 0 0.25 0"/>
<feBlend mode="normal" in2="shape" result="effect1_innerShadow"/>
</filter>
</defs>
</svg>
