<svg width="42" height="37" viewBox="0 0 42 37" fill="none" xmlns="http://www.w3.org/2000/svg">
<g clip-path="url(#clip0)">
<path d="M30.8802 -0.000920674C24.7552 0.020759 19.8333 5.02154 19.8333 11.0919V16.1866H3.5C1.56771 16.1866 0 17.7403 0 19.6553V33.5303C0 35.4454 1.56771 36.9991 3.5 36.9991H29.1667C31.099 36.9991 32.6667 35.4454 32.6667 33.5303V19.6553C32.6667 17.7403 31.099 16.1866 29.1667 16.1866H25.6667V11.0485C25.6667 8.18678 27.9781 5.80924 30.8656 5.78033C33.7823 5.75142 36.1667 8.10006 36.1667 10.9835V16.7647C36.1667 17.7258 36.9469 18.4991 37.9167 18.4991H40.25C41.2198 18.4991 42 17.7258 42 16.7647V10.9835C42 4.91314 37.0052 -0.0226004 30.8802 -0.000920674Z" fill="#26ACE9"/>
</g>
<defs>
<clipPath id="clip0">
<rect width="42" height="37" fill="white"/>
</clipPath>
</defs>
</svg>
