<svg width="42" height="37" viewBox="0 0 42 37" fill="none" xmlns="http://www.w3.org/2000/svg">
<path d="M37.5 16.1875H35.25V10.9844C35.25 4.92852 28.8563 0 21 0C13.1437 0 6.75 4.92852 6.75 10.9844V16.1875H4.5C2.01562 16.1875 0 17.7412 0 19.6562V33.5312C0 35.4463 2.01562 37 4.5 37H37.5C39.9844 37 42 35.4463 42 33.5312V19.6562C42 17.7412 39.9844 16.1875 37.5 16.1875ZM27.75 16.1875H14.25V10.9844C14.25 8.11543 17.2781 5.78125 21 5.78125C24.7219 5.78125 27.75 8.11543 27.75 10.9844V16.1875Z" fill="#26ACE9"/>
</svg>
